<mxfile host="app.diagrams.net" agent="Mozilla/5.0 (Windows NT 10.0; Win64; x64) AppleWebKit/537.36 (KHTML, like Gecko) Chrome/135.0.0.0 Safari/537.36 Edg/135.0.0.0" version="26.2.10">
  <diagram name="Страница — 1" id="2bd6GUBVNUzbJp2V59av">
    <mxGraphModel dx="824" dy="462" grid="1" gridSize="10" guides="1" tooltips="1" connect="1" arrows="1" fold="1" page="1" pageScale="1" pageWidth="827" pageHeight="1169" math="0" shadow="0">
      <root>
        <mxCell id="0" />
        <mxCell id="1" parent="0" />
        <mxCell id="ELH_EoFufX17akkv9xCp-1" value="" style="rounded=0;whiteSpace=wrap;html=1;" vertex="1" parent="1">
          <mxGeometry x="280" y="240" width="260" height="650" as="geometry" />
        </mxCell>
        <mxCell id="ELH_EoFufX17akkv9xCp-2" value="Пользователь" style="shape=umlActor;verticalLabelPosition=bottom;verticalAlign=top;html=1;outlineConnect=0;" vertex="1" parent="1">
          <mxGeometry x="50" y="535" width="30" height="60" as="geometry" />
        </mxCell>
        <mxCell id="ELH_EoFufX17akkv9xCp-5" value="БД" style="shape=umlActor;verticalLabelPosition=bottom;verticalAlign=top;html=1;outlineConnect=0;" vertex="1" parent="1">
          <mxGeometry x="590" y="525" width="30" height="60" as="geometry" />
        </mxCell>
        <mxCell id="ELH_EoFufX17akkv9xCp-8" value="Просматривать&amp;nbsp;&lt;br&gt;материалы&lt;br&gt;занятий" style="ellipse;whiteSpace=wrap;html=1;fontSize=9;align=center;spacing=2;spacingTop=5;" vertex="1" parent="1">
          <mxGeometry x="300" y="760" width="80" height="50" as="geometry" />
        </mxCell>
        <mxCell id="ELH_EoFufX17akkv9xCp-11" value="Администратор" style="shape=umlActor;verticalLabelPosition=bottom;verticalAlign=top;html=1;outlineConnect=0;" vertex="1" parent="1">
          <mxGeometry x="190" y="270" width="30" height="60" as="geometry" />
        </mxCell>
        <mxCell id="ELH_EoFufX17akkv9xCp-13" value="" style="endArrow=none;dashed=1;html=1;rounded=0;exitX=1;exitY=0.3333333333333333;exitDx=0;exitDy=0;exitPerimeter=0;entryX=0;entryY=0.3333333333333333;entryDx=0;entryDy=0;entryPerimeter=0;startArrow=open;startFill=0;" edge="1" parent="1" source="ELH_EoFufX17akkv9xCp-2" target="ELH_EoFufX17akkv9xCp-11">
          <mxGeometry width="50" height="50" relative="1" as="geometry">
            <mxPoint x="130" y="500" as="sourcePoint" />
            <mxPoint x="170" y="460" as="targetPoint" />
          </mxGeometry>
        </mxCell>
        <mxCell id="ELH_EoFufX17akkv9xCp-14" value="Преподаватель" style="shape=umlActor;verticalLabelPosition=bottom;verticalAlign=top;html=1;outlineConnect=0;" vertex="1" parent="1">
          <mxGeometry x="190" y="535" width="30" height="60" as="geometry" />
        </mxCell>
        <mxCell id="ELH_EoFufX17akkv9xCp-15" value="Ученик" style="shape=umlActor;verticalLabelPosition=bottom;verticalAlign=top;html=1;outlineConnect=0;" vertex="1" parent="1">
          <mxGeometry x="190" y="800" width="30" height="60" as="geometry" />
        </mxCell>
        <mxCell id="ELH_EoFufX17akkv9xCp-16" value="" style="endArrow=none;dashed=1;html=1;rounded=0;entryX=0;entryY=0.3333333333333333;entryDx=0;entryDy=0;entryPerimeter=0;startArrow=open;startFill=0;exitX=1;exitY=0.3333333333333333;exitDx=0;exitDy=0;exitPerimeter=0;" edge="1" parent="1" source="ELH_EoFufX17akkv9xCp-2" target="ELH_EoFufX17akkv9xCp-14">
          <mxGeometry width="50" height="50" relative="1" as="geometry">
            <mxPoint x="100" y="560" as="sourcePoint" />
            <mxPoint x="190" y="300" as="targetPoint" />
          </mxGeometry>
        </mxCell>
        <mxCell id="ELH_EoFufX17akkv9xCp-17" value="" style="endArrow=none;dashed=1;html=1;rounded=0;entryX=0;entryY=0.3333333333333333;entryDx=0;entryDy=0;entryPerimeter=0;startArrow=open;startFill=0;exitX=1;exitY=0.3333333333333333;exitDx=0;exitDy=0;exitPerimeter=0;" edge="1" parent="1" source="ELH_EoFufX17akkv9xCp-2" target="ELH_EoFufX17akkv9xCp-15">
          <mxGeometry width="50" height="50" relative="1" as="geometry">
            <mxPoint x="90" y="565" as="sourcePoint" />
            <mxPoint x="190" y="545" as="targetPoint" />
          </mxGeometry>
        </mxCell>
        <mxCell id="ELH_EoFufX17akkv9xCp-18" value="" style="endArrow=none;html=1;rounded=0;exitX=1;exitY=0.3333333333333333;exitDx=0;exitDy=0;exitPerimeter=0;entryX=0;entryY=0.5;entryDx=0;entryDy=0;" edge="1" parent="1" source="ELH_EoFufX17akkv9xCp-15" target="ELH_EoFufX17akkv9xCp-8">
          <mxGeometry width="50" height="50" relative="1" as="geometry">
            <mxPoint x="220" y="800" as="sourcePoint" />
            <mxPoint x="270" y="750" as="targetPoint" />
          </mxGeometry>
        </mxCell>
        <mxCell id="ELH_EoFufX17akkv9xCp-19" value="Проходить&amp;nbsp;&lt;br&gt;тесты" style="ellipse;whiteSpace=wrap;html=1;fontSize=9;" vertex="1" parent="1">
          <mxGeometry x="300" y="820" width="80" height="50" as="geometry" />
        </mxCell>
        <mxCell id="ELH_EoFufX17akkv9xCp-20" value="" style="endArrow=none;html=1;rounded=0;exitX=1;exitY=0.3333333333333333;exitDx=0;exitDy=0;exitPerimeter=0;entryX=0;entryY=0.5;entryDx=0;entryDy=0;" edge="1" parent="1" target="ELH_EoFufX17akkv9xCp-19" source="ELH_EoFufX17akkv9xCp-15">
          <mxGeometry width="50" height="50" relative="1" as="geometry">
            <mxPoint x="220" y="720" as="sourcePoint" />
            <mxPoint x="270" y="650" as="targetPoint" />
          </mxGeometry>
        </mxCell>
        <mxCell id="ELH_EoFufX17akkv9xCp-21" value="Входить в&lt;br&gt;личный &lt;br&gt;кабинет" style="ellipse;whiteSpace=wrap;html=1;fontSize=9;" vertex="1" parent="1">
          <mxGeometry x="300" y="530" width="81" height="50" as="geometry" />
        </mxCell>
        <mxCell id="ELH_EoFufX17akkv9xCp-22" value="" style="endArrow=none;html=1;rounded=0;exitX=1;exitY=0.3333333333333333;exitDx=0;exitDy=0;exitPerimeter=0;entryX=0;entryY=0.5;entryDx=0;entryDy=0;" edge="1" parent="1" source="ELH_EoFufX17akkv9xCp-15" target="ELH_EoFufX17akkv9xCp-21">
          <mxGeometry width="50" height="50" relative="1" as="geometry">
            <mxPoint x="230" y="830" as="sourcePoint" />
            <mxPoint x="309" y="795" as="targetPoint" />
          </mxGeometry>
        </mxCell>
        <mxCell id="ELH_EoFufX17akkv9xCp-24" value="" style="endArrow=none;html=1;rounded=0;exitX=1;exitY=0.3333333333333333;exitDx=0;exitDy=0;exitPerimeter=0;entryX=0;entryY=0.5;entryDx=0;entryDy=0;" edge="1" parent="1" source="ELH_EoFufX17akkv9xCp-14" target="ELH_EoFufX17akkv9xCp-21">
          <mxGeometry width="50" height="50" relative="1" as="geometry">
            <mxPoint x="230" y="830" as="sourcePoint" />
            <mxPoint x="309" y="735" as="targetPoint" />
          </mxGeometry>
        </mxCell>
        <mxCell id="ELH_EoFufX17akkv9xCp-25" value="" style="endArrow=none;html=1;rounded=0;entryX=0;entryY=0.5;entryDx=0;entryDy=0;exitX=1;exitY=1;exitDx=0;exitDy=0;exitPerimeter=0;" edge="1" parent="1" source="ELH_EoFufX17akkv9xCp-11" target="ELH_EoFufX17akkv9xCp-21">
          <mxGeometry width="50" height="50" relative="1" as="geometry">
            <mxPoint x="240" y="410" as="sourcePoint" />
            <mxPoint x="309" y="735" as="targetPoint" />
          </mxGeometry>
        </mxCell>
        <mxCell id="ELH_EoFufX17akkv9xCp-28" value="" style="edgeStyle=orthogonalEdgeStyle;rounded=0;orthogonalLoop=1;jettySize=auto;dashed=1;html=1;endArrow=none;startFill=0;startArrow=open;" edge="1" parent="1" source="ELH_EoFufX17akkv9xCp-27" target="ELH_EoFufX17akkv9xCp-21">
          <mxGeometry relative="1" as="geometry" />
        </mxCell>
        <mxCell id="ELH_EoFufX17akkv9xCp-29" value="includes" style="edgeLabel;html=1;align=center;verticalAlign=middle;resizable=0;points=[];fontSize=8;" vertex="1" connectable="0" parent="ELH_EoFufX17akkv9xCp-28">
          <mxGeometry x="-0.1137" y="-1" relative="1" as="geometry">
            <mxPoint x="-2" y="11" as="offset" />
          </mxGeometry>
        </mxCell>
        <mxCell id="ELH_EoFufX17akkv9xCp-27" value="Просматривать&lt;br&gt;результаты&lt;br&gt;тестов" style="ellipse;whiteSpace=wrap;html=1;fontSize=9;" vertex="1" parent="1">
          <mxGeometry x="420" y="530" width="81" height="50" as="geometry" />
        </mxCell>
      </root>
    </mxGraphModel>
  </diagram>
</mxfile>
